<?xml version="1.0" encoding="UTF-8"?>
<svg xmlns="http://www.w3.org/2000/svg" xmlns:xlink="http://www.w3.org/1999/xlink" width="24pt" height="24pt" viewBox="0 0 24 24" version="1.1">
<g id="surface1">
<path style=" stroke:none;fill-rule:nonzero;fill:#5B5B5B;fill-opacity:1;" d="M 18 22 L 6 22 C 4.898438 22 4 21.101563 4 20 L 4 17 L 6 17 L 6 20 L 18 20 L 18 7.800781 L 14.199219 4 L 6 4 L 6 10 L 4 10 L 4 4 C 4 2.898438 4.898438 2 6 2 L 15 2 L 20 7 L 20 20 C 20 21.101563 19.101563 22 18 22 Z "/>
<path style=" stroke:none;fill-rule:nonzero;fill:#5B5B5B;fill-opacity:1;" d="M 18.5 8 L 14 8 L 14 3.5 Z "/>
<path style=" stroke:none;fill-rule:nonzero;fill:#5B5B5B;fill-opacity:0.301961;" d="M 13.601563 3 L 6 3 C 5.398438 3 5 3.398438 5 4 L 5 10 L 17 10 L 17 17 L 5 17 L 5 20 C 5 20.601563 5.398438 21 6 21 L 18 21 C 18.601563 21 19 20.601563 19 20 L 19 8.398438 Z "/>
<path style=" stroke:none;fill-rule:nonzero;fill:#5B5B5B;fill-opacity:1;" d="M 9.5 12 L 9 12 L 9 13 L 9.5 13 C 9.800781 13 10 12.800781 10 12.5 C 10 12.199219 9.800781 12 9.5 12 Z "/>
<path style=" stroke:none;fill-rule:nonzero;fill:#5B5B5B;fill-opacity:1;" d="M 19 9 L 4 9 C 2.898438 9 2 9.898438 2 11 L 2 16 C 2 17.101563 2.898438 18 4 18 L 19 18 Z M 7 14.5 C 7 15.300781 6.300781 16 5.5 16 C 4.699219 16 4 15.300781 4 14.5 L 5 14.5 C 5 14.800781 5.199219 15 5.5 15 C 5.800781 15 6 14.800781 6 14.5 L 6 11 L 7 11 Z M 9.5 14 L 9 14 L 9 16 L 8 16 L 8 11 L 9.5 11 C 10.300781 11 11 11.699219 11 12.5 C 11 13.300781 10.300781 14 9.5 14 Z M 16 15.398438 C 15.898438 15.5 15.300781 16 14.101563 16 C 13.800781 16 12.101563 16 12 13.898438 L 12 13.101563 C 12 12.699219 12 11 14 11 C 15.199219 11 15.601563 11.5 15.800781 12 L 14 12 C 13.101563 12 13 12.898438 13 13.101563 L 13 13.898438 C 13 14.101563 13.199219 15 14.199219 15 C 14.5 15 15 14.800781 15 14.800781 L 15 14 L 14 14 L 14 13 L 16 13 Z "/>
</g>
</svg>
