<?xml version="1.0" encoding="UTF-8"?>
<svg xmlns="http://www.w3.org/2000/svg" xmlns:xlink="http://www.w3.org/1999/xlink" width="24pt" height="24pt" viewBox="0 0 24 24" version="1.1">
<g id="surface1">
<path style=" stroke:none;fill-rule:nonzero;fill:#5B5B5B;fill-opacity:0.301961;" d="M 17 11 C 17 11 17 11 17 13 C 17 15 17 16 17 16 L 4 20 L 8 7 C 8 7 9 7 11 7 C 13 7 13 7 13 7 Z "/>
<path style=" stroke:none;fill-rule:nonzero;fill:#5B5B5B;fill-opacity:1;" d="M 2.5 21.5 L 7.300781 6 L 13 6 L 13 8 L 8.699219 8 L 5.5 18.5 L 16 15.300781 L 16 11 L 18 11 L 18 16.699219 Z "/>
<path style=" stroke:none;fill-rule:nonzero;fill:#5B5B5B;fill-opacity:1;" d="M 13 13 C 13 14.105469 12.105469 15 11 15 C 9.894531 15 9 14.105469 9 13 C 9 11.894531 9.894531 11 11 11 C 12.105469 11 13 11.894531 13 13 Z "/>
<path style=" stroke:none;fill-rule:nonzero;fill:#5B5B5B;fill-opacity:1;" d="M 3.789063 18.722656 L 10.296875 12.21875 L 11.710938 13.632813 L 5.203125 20.136719 Z "/>
<path style=" stroke:none;fill-rule:nonzero;fill:#5B5B5B;fill-opacity:1;" d="M 16.898438 12.398438 L 11.601563 7.101563 L 15 2.601563 C 15.300781 2.101563 15.898438 1.800781 16.5 1.800781 C 17.101563 1.800781 17.601563 2 18.101563 2.398438 L 21.5 5.800781 C 21.898438 6.199219 22.101563 6.800781 22.101563 7.398438 C 22.101563 8 21.800781 8.5 21.300781 8.898438 Z M 14.300781 6.898438 L 17 9.601563 L 20 7.199219 L 16.699219 3.800781 Z "/>
</g>
</svg>
