<?xml version="1.0" encoding="UTF-8"?>
<svg xmlns="http://www.w3.org/2000/svg" xmlns:xlink="http://www.w3.org/1999/xlink" width="24pt" height="24pt" viewBox="0 0 24 24" version="1.1">
<g id="surface1">
<path style=" stroke:none;fill-rule:nonzero;fill:#5B5B5B;fill-opacity:1;" d="M 19 24 L 15 20 L 23 20 Z "/>
<path style=" stroke:none;fill-rule:nonzero;fill:#5B5B5B;fill-opacity:1;" d="M 18 16 L 20 16 L 20 21 L 18 21 Z "/>
<path style=" stroke:none;fill-rule:nonzero;fill:#5B5B5B;fill-opacity:1;" d="M 15.898438 15.699219 C 15.699219 16.300781 15.199219 16.5 14.601563 16.300781 C 14.101563 16.101563 13.601563 15.699219 13 15.101563 C 12.398438 15.199219 11.898438 15.300781 11.300781 15.5 C 10.699219 16.601563 10 17.601563 9.398438 17.898438 C 9.300781 18 9.101563 18 8.898438 18 C 8.601563 18 8.300781 17.898438 8.199219 17.601563 C 8 17.398438 7.699219 16.898438 8.398438 16.101563 C 8.800781 15.601563 9.800781 15.101563 10.800781 14.800781 C 11.101563 14.199219 11.398438 13.5 11.601563 12.800781 C 11 11.699219 10.699219 10.601563 10.800781 10 C 10.898438 9.398438 11.300781 9 11.800781 9 C 12.300781 9 12.699219 9.398438 12.800781 9.898438 C 13 10.5 12.800781 11.601563 12.398438 12.800781 C 12.601563 13.300781 13 13.800781 13.300781 14.300781 C 14.300781 14.199219 15.101563 14.199219 15.5 14.5 C 16 14.800781 16.101563 15.199219 15.898438 15.699219 Z "/>
<path style=" stroke:none;fill-rule:nonzero;fill:#5B5B5B;fill-opacity:1;" d="M 18.5 9 L 13 9 L 13 3.5 Z "/>
<path style=" stroke:none;fill-rule:nonzero;fill:#5B5B5B;fill-opacity:1;" d="M 12.199219 20 L 6 20 L 6 4 L 13.199219 4 L 18 8.800781 L 18 14 L 20 14 L 20 8 L 14 2 L 6 2 C 4.898438 2 4 2.898438 4 4 L 4 20 C 4 21.101563 4.898438 22 6 22 L 14.199219 22 Z "/>
<path style=" stroke:none;fill-rule:nonzero;fill:#5B5B5B;fill-opacity:0.301961;" d="M 13.601563 3 L 6 3 C 5.398438 3 5 3.398438 5 4 L 5 20 C 5 20.5 5.398438 21 6 21 L 12 21 L 12 19 C 12 18.398438 12.398438 18 13 18 L 16 18 L 16 15 C 16 14.398438 16.398438 14 17 14 L 19 14 L 19 8.398438 Z "/>
</g>
</svg>
