<?xml version="1.0" encoding="UTF-8"?>
<svg xmlns="http://www.w3.org/2000/svg" xmlns:xlink="http://www.w3.org/1999/xlink" width="24pt" height="24pt" viewBox="0 0 24 24" version="1.1">
<g id="surface1">
<path style=" stroke:none;fill-rule:nonzero;fill:#5B5B5B;fill-opacity:0.301961;" d="M 10 20.699219 C 9.601563 21.101563 9 21.101563 8.601563 20.699219 L 3.199219 15.300781 C 2.800781 14.898438 2.800781 14.300781 3.199219 13.898438 L 14 3.300781 C 14.398438 2.898438 15 2.898438 15.398438 3.300781 L 20.800781 8.699219 C 21.199219 9.101563 21.199219 9.699219 20.800781 10.101563 Z "/>
<path style=" stroke:none;fill-rule:nonzero;fill:#5B5B5B;fill-opacity:1;" d="M 9.300781 22 C 8.800781 22 8.300781 21.800781 7.898438 21.398438 L 2.601563 16 C 1.800781 15.199219 1.800781 14 2.601563 13.199219 L 13.300781 2.601563 C 14.101563 1.800781 15.300781 1.800781 16.101563 2.601563 L 21.398438 8 C 22.199219 8.800781 22.199219 10 21.398438 10.800781 L 10.699219 21.398438 C 10.398438 21.800781 9.898438 22 9.300781 22 Z M 14.601563 4 L 4 14.699219 L 9.300781 20 L 20 9.300781 Z "/>
<path style=" stroke:none;fill-rule:nonzero;fill:#5B5B5B;fill-opacity:1;" d="M 9.5 20 L 22 20 L 22 22 L 9.5 22 Z "/>
<path style=" stroke:none;fill-rule:nonzero;fill:#5B5B5B;fill-opacity:1;" d="M 7.691406 9.195313 L 9.105469 7.78125 L 16.105469 14.78125 L 14.691406 16.195313 Z "/>
</g>
</svg>
