<?xml version="1.0" encoding="utf-8"?>
<svg xmlns="http://www.w3.org/2000/svg" viewBox="0 0 30 30" fill="#000000"><path d="M 3 5 A 1 1 0 0 0 2 6 L 2 22 A 1 1 0 0 0 2.9375 22.996094 L 10.705078 24.955078 L 10.712891 24.957031 A 1 1 0 0 0 11 25 A 1 1 0 0 0 11.1875 24.982422 L 11.189453 24.982422 L 20 23 L 26.705078 24.955078 A 1 1 0 0 0 26.716797 24.958984 A 1 1 0 0 0 27 25 A 1 1 0 0 0 28 24 L 28 8 A 1 1 0 0 0 27.234375 7.0292969 A 1 1 0 0 0 27.232422 7.0273438 L 20.294922 5.0449219 A 1 1 0 0 0 20.273438 5.0390625 A 1 1 0 0 0 20 5 A 1 1 0 0 0 19.726562 5.0390625 A 1 1 0 0 0 19.722656 5.0390625 L 11 7 L 3.296875 5.0449219 A 1 1 0 0 0 3.2949219 5.0449219 A 1 1 0 0 0 3 5 z M 20 7 C 21.105 7 22 7.895 22 9 C 22 10.105 21.105 11 20 11 C 18.895 11 18 10.105 18 9 C 18 7.895 18.895 7 20 7 z M 7 10 C 8.105 10 9 10.895 9 12 C 9 13.105 8.105 14 7 14 C 5.895 14 5 13.105 5 12 C 5 10.895 5.895 10 7 10 z M 12 10 C 12.552 10 13 10.448 13 11 C 13 11.552 12.552 12 12 12 C 11.448 12 11 11.552 11 11 C 11 10.448 11.448 10 12 10 z M 16 11 C 16.552 11 17 11.448 17 12 C 17 12.552 16.552 13 16 13 C 15.448 13 15 12.552 15 12 C 15 11.448 15.448 11 16 11 z M 24 11 C 24.552 11 25 11.448 25 12 C 25 12.552 24.552 13 24 13 C 23.448 13 23 12.552 23 12 C 23 11.448 23.448 11 24 11 z M 24 15 C 24.552 15 25 15.448 25 16 C 25 16.552 24.552 17 24 17 C 23.448 17 23 16.552 23 16 C 23 15.448 23.448 15 24 15 z M 20 18 C 20.552 18 21 18.448 21 19 C 21 19.552 20.552 20 20 20 C 19.448 20 19 19.552 19 19 C 19 18.448 19.448 18 20 18 z M 11 19 C 12.105 19 13 19.895 13 21 C 13 22.105 12.105 23 11 23 C 9.895 23 9 22.105 9 21 C 9 19.895 9.895 19 11 19 z M 16 19 C 16.552 19 17 19.448 17 20 C 17 20.552 16.552 21 16 21 C 15.448 21 15 20.552 15 20 C 15 19.448 15.448 19 16 19 z M 24 19 C 24.552 19 25 19.448 25 20 C 25 20.552 24.552 21 24 21 C 23.448 21 23 20.552 23 20 C 23 19.448 23.448 19 24 19 z" fill="#000000"/></svg>
